{"title":"Hanna (2011) RC BDrip HDready Dolby Surround Greek Subs","uid":6553713,"size":879699015,"categoryP":"video","categoryS":"movies","magnet":"?xt=urn:btih:0a1c406bca5f6475ae6566b0980e3350136dd700&amp;dn=Hanna+%282011%29+RC+BDrip+HDready+Dolby+Surround+Greek+Subs&amp;tr=udp%3A%2F%2Ftracker.openbittorrent.com%3A80&amp;tr=udp%3A%2F%2Fopen.demonii.com%3A1337&amp;tr=udp%3A%2F%2Ftracker.coppersurfer.tk%3A6969&amp;tr=udp%3A%2F%2Fexodus.desync.com%3A6969","seeders":1,"leechers":0,"uploader":"OmifastGR","files":-1,"time":1311197661,"description":"-------------------------------------------------\nAVC (Advanced Video Coding) H264\nHigh Efficiency Dolby Digital Surround\n-------------------------------------------------\n\nSeparate Greek Subtitles\n\nIMDB &lt;a href=&quot;\nhttp://www.imdb.com/title/tt0993842/&quot; rel=&quot;nofollow&quot; target=&quot;_NEW&quot;&gt;\nhttp://www.imdb.com/title/tt0993842/&lt;/a&gt;\n\n\nPLOT\nA 16-year-old who was raised by her father to be the perfect assassin is dispatched on a mission across Europe, tracked by a ruthless intelligence agent and her operatives.\n\n\nMEDIA INFO\n\nVideo\nID                               : 1\nFormat                           : AVC\nFormat/Info                      : Advanced Video Codec\nCodec ID/Info                    : Advanced Video Coding\nDuration                         : 1h 50mn\nBit rate mode                    : Variable\nBit rate                         : 965 Kbps\nMaximum bit rate                 : 6 553 Kbps\nWidth                            : 720 pixels\nHeight                           : 480 pixels\nDisplay aspect ratio             : 16:9\nFrame rate mode                  : Constant\nFrame rate                       : 25.000 fps\nStandard                         : PAL\nStream size                      : 766 MiB (92%)\nLanguage                         : English\n\nAudio\nID                               : 2\nFormat                           : AAC\nFormat/Info                      : Advanced Audio Codec\nFormat profile                   : HE-AAC\nDuration                         : 1h 50mn\nBit rate mode                    : Variable\nBit rate                         : 79.8 Kbps\nMaximum bit rate                 : 96.6 Kbps\nChannel(s)                       : 6 channels\nChannel positions                : Front: L C R, Side: L R, LFE\nSampling rate                    : 48.0 KHz / 24.0 KHz\nCompression mode                 : Lossy\nStream size                      : 63.3 MiB (8%)\nLanguage                         : English\n","torrent":{"xt":"urn:btih:0a1c406bca5f6475ae6566b0980e3350136dd700","amp;dn":"Hanna+%282011%29+RC+BDrip+HDready+Dolby+Surround+Greek+Subs","amp;tr":["udp%3A%2F%2Ftracker.openbittorrent.com%3A80","udp%3A%2F%2Fopen.demonii.com%3A1337","udp%3A%2F%2Ftracker.coppersurfer.tk%3A6969","udp%3A%2F%2Fexodus.desync.com%3A6969"],"infoHash":"0a1c406bca5f6475ae6566b0980e3350136dd700","infoHashBuffer":{"type":"Buffer","data":[10,28,64,107,202,95,100,117,174,101,102,176,152,14,51,80,19,109,215,0]},"announce":[],"urlList":[]}}